<?xml version="1.0" encoding="utf-8"?>
<!-- Generator: Adobe Illustrator 24.0.1, SVG Export Plug-In . SVG Version: 6.00 Build 0)  -->
<svg version="1.1" id="Layer_1" xmlns="http://www.w3.org/2000/svg" xmlns:xlink="http://www.w3.org/1999/xlink" x="0px" y="0px"
	 viewBox="0 0 837 927" style="enable-background:new 0 0 837 927;" xml:space="preserve">
<style type="text/css">
	.st0{fill-rule:evenodd;clip-rule:evenodd;fill:#009CD9;}
	.st1{fill:none;stroke:#1B2129;}
</style>
<title>bg shape</title>
<g id="Page-1">
	<g id="_x30_1.Home" transform="translate(-914.000000, -1125.000000)">
		<g id="Features" transform="translate(0.000000, 956.265347)">
			<g id="bg-shape" transform="translate(914.000000, 168.734653)">
				<path class="st0" d="M599.6,845c91.4-26.2,106.2-525.2,56.2-699.6c-50-174.4-369.3-102.2-237.3,68S211.9,465.7,261.9,640.1
					S508.2,871.2,599.6,845z"/>
				<path class="st1" d="M379.3,48.9c41.9-12,91.9-11.1,132.9,6.5c34.7,14.8,63,41.6,74.6,82.3c27,94.2,30.6,284.5,12.2,444
					c-8.3,71.9-21,137.5-38.1,185.3c-15.1,42.2-33.5,70.6-55.2,76.9c-57.1,16.4-150.3,7-229.5-35.7
					c-60.8-32.8-113.4-85.3-135.1-160.9c-9.7-33.8-3.4-64.6,12.1-93.4c20.2-37.7,56.1-72.1,92.1-105.7l3.4-3.2
					c0.8-0.7,1.5-1.4,2.3-2.1c0.4-0.4,0.9-0.8,1.3-1.2l2.6-2.5c42.5-39.7,83.3-78.7,97.1-121.3c10.5-32.4,5.3-67-26.9-105.4
					c-31.1-37.2-37.9-70.2-29-97.1C306.7,83.6,339.3,60.3,379.3,48.9z"/>
			</g>
		</g>
	</g>
</g>
</svg>
