<?xml version="1.0" encoding="utf-8"?>
<!-- Generator: Adobe Illustrator 24.0.1, SVG Export Plug-In . SVG Version: 6.00 Build 0)  -->
<svg version="1.1" id="Layer_1" xmlns="http://www.w3.org/2000/svg" xmlns:xlink="http://www.w3.org/1999/xlink" x="0px" y="0px"
	 viewBox="0 0 1417.3 4252" style="enable-background:new 0 0 1417.3 4252;" xml:space="preserve">
<style type="text/css">
	.st0{fill:none;stroke:#1A1A1A;stroke-width:3.5701;stroke-linecap:round;stroke-linejoin:round;stroke-miterlimit:11.9003;}
	
		.st1{fill:none;stroke:#1A1A1A;stroke-width:2.3801;stroke-linecap:round;stroke-linejoin:round;stroke-miterlimit:11.9003;stroke-dasharray:14.2803;}
	.st2{fill:#1A1A1A;stroke:#1A1A1A;stroke-width:2.3801;stroke-linecap:round;stroke-linejoin:round;stroke-miterlimit:11.9003;}
	.st3{fill:#FFFFFF;stroke:#1A1A1A;stroke-width:2.3801;stroke-linecap:round;stroke-linejoin:round;stroke-miterlimit:11.9003;}
	.st4{fill:none;stroke:#1A1A1A;stroke-width:2.3801;stroke-linecap:round;stroke-linejoin:round;stroke-miterlimit:11.9003;}
	.st5{fill:none;stroke:#FFFFFF;stroke-width:2.3801;stroke-linecap:round;stroke-linejoin:round;stroke-miterlimit:11.9003;}
	
		.st6{fill:none;stroke:#B3B3B3;stroke-width:2.3801;stroke-linecap:round;stroke-linejoin:round;stroke-miterlimit:11.9003;stroke-dasharray:14.2803;}
	.st7{fill:#9644AA;stroke:#1A1A1A;stroke-width:2.3801;stroke-linecap:round;stroke-linejoin:round;stroke-miterlimit:11.9003;}
	.st8{fill:#FFFFFF;stroke:#1A1A1A;stroke-width:2.3799;stroke-linecap:round;stroke-linejoin:round;stroke-miterlimit:11.8997;}
	.st9{fill:#FFFFFF;stroke:#1A1A1A;stroke-width:2.38;stroke-linecap:round;stroke-linejoin:round;stroke-miterlimit:11.8999;}
</style>
<path class="st0" d="M369.9,2413.4c-132,66.6-158.9,114.2-155.4,146.8c5.6,52.2,90.4,72.8,92.2,137.2c1.3,46.9-42.8,58.9-36.7,94.2
	c11.4,65.3,180.3,126.1,275.5,71.6c44.7-25.6,32.8-53.6,78.3-81.2c19-11.5,66.6-34.3,270.4,9.5c137.8,29.6,142.3,45.8,199.7,43
	c67.6-3.3,186.5-31.8,216.1-113.4c35.9-98.9-85.1-204-102.3-218.4c-149.9-126.3-411.5-112-477.7-21.5c-12,16.4-21.8,41.1-45.5,45.3
	c-38.3,6.9-65.2-47.7-120.1-82.3C528.3,2421.6,469.1,2400.5,369.9,2413.4L369.9,2413.4z"/>
<path class="st1" d="M398.2,2302c-28-95.2-24.8-202.9-8-318.8c60.8-419.7,516.5-654.6,516.5-654.6"/>
<path class="st2" d="M663.8,1493.1c0,0,69.9,87.6,77.5,87.6c1.3-14.3,147.1-231.7,169.5-253.2
	C821.8,1349.1,663.8,1493.1,663.8,1493.1L663.8,1493.1z"/>
<polygon class="st3" points="741.4,1580.7 692.4,1505.3 915.6,1325.2 "/>
<path class="st3" d="M663.8,1493.1c0,0,195.8-152.8,251.7-167.9c-69.7,16.3-243.7,98.8-325.8,194.9
	C618.7,1495.2,650.4,1484.6,663.8,1493.1z"/>
<path class="st3" d="M678.4,1497.6c0,0,143.8-128.5,237.1-172.4c-125.3,110.8-187.9,182-218.7,270.4
	C683.2,1559.5,678.4,1497.6,678.4,1497.6L678.4,1497.6z"/>
<path class="st3" d="M916,2214.3c-10-41.1,11.1-87.5,48.4-107.1c13.7-7.1,30.2-11.8,38.4-25c6.5-10.4,6.2-23.7,3.8-35.7
	c-1.5-7.6-3.7-15.2-4.2-23c-0.4-7.7,1.3-16.1,6.5-21.8c8.8-9.5,24.3-8.7,36.5-4.3c12.3,4.3,44.6,35.6,26.1,53.9
	c-3.9,3.9-10.2,6.2-11.8,11.5c-1.9,6.8,4.3,13.3,10.7,16.2c6.4,2.9,13.9,3.8,19.6,8c11.7,8.7,9.9,28.4-1,38.3
	c-10.7,9.9-26.9,11.5-41.3,9c-11.7-1.9-24.9-6-34.6,0.8c-5.1,3.5-8.1,9.3-9.9,15.2c-4.8,15.1-3.2,31.7-6.8,47.1
	s-15.5,31.4-31.3,30.7"/>
<path class="st3" d="M928.7,2217.1c5.7-26.2,13.9-52.2,28.7-74.6c14.9-22.4,37-40.7,63.2-46.4"/>
<path class="st3" d="M939.8,2221.1c5-20.1,19.5-37.6,38.4-46.2"/>
<path class="st3" d="M1012.2,2274.4c-1.5-10.7-3.1-21.5-1.7-32.2s6.4-21.4,15.4-27.5c8.1-5.5,18.2-6.5,27.7-8.1
	c9.5-1.7,19.8-4.4,25.8-12c10.6-13.3,3.6-35,14.2-48.4c7.1-9.2,20-11.3,31.7-11.3c6.8,0,13.7,0.5,20.1,2.9
	c6.4,2.4,12.3,6.7,15.2,12.9c5.1,10.5,0.5,23.6-8.2,31.3c-6,5.4-13.7,8.9-18.4,15.4c-7,9.8-5.4,23.1-2.4,34.7s7,23.8,3.7,35.3
	c-3.3,11.4-13.4,19.9-24.6,23.8c-11.2,3.9-23.4,3.9-35.2,3c-14.8-1.2-29.4-3.7-43.7-7.6"/>
<path class="st4" d="M1018.3,2277c-0.4-13.2,7.4-25.5,17.3-34.3s21.8-14.9,33-21.8c11.2-6.9,22.3-15.1,28.7-26.7
	c7.3-12.9,8-28.2,8.2-43"/>
<path class="st4" d="M1025.2,2280.8c3.3-12.1,14.4-20.5,25.8-25.7c11.4-5.1,23.9-8.1,34.7-14.3c10.9-6.2,20.6-16.9,20.5-29.5"/>
<path class="st4" d="M1024.1,2285.9c8.6-7.5,20.5-9.6,31.8-10.1c11.3-0.5,22.8,0.2,33.9-2.5c10.9-2.9,21.8-10.2,24.4-21.3"/>
<path class="st2" d="M981.1,2376.4c4.2-10.1,17.3-14.2,27.8-11.4c10.6,2.7,19.2,10.2,27,18s15.6,15.8,25.6,20.2
	c8.7,3.8,18.4,4.4,27.8,4.6c11.1,0.4,23.2,0,31.8-7c9.4-7.7,11.8-21.2,12.5-33.3c0.2-4.6,0.4-9.4-0.7-13.9
	c-1.1-4.5-3.6-8.9-7.5-11.3c-5.5-3.5-12.6-2.6-19-2.3c-6.5,0.4-14-0.4-17.9-5.6c-3-3.9-2.9-9.3-4.8-13.8
	c-4.2-10.1-17.4-13.8-27.8-10.8s-18.9,10.7-26.5,18.6"/>
<path class="st5" d="M1023.1,2339.8c9-8.7,23.6-11.2,35-6.1c6.3,2.9,11.4,7.5,17.3,11.2c5.8,3.7,13,6.2,19.5,4"/>
<path class="st5" d="M1013.3,2349.8c13.2-3.9,27.8-2.7,40.2,3.3c7.5,3.7,14,9,21.4,13.1s15.9,6.8,24,4.5"/>
<path class="st5" d="M1008.2,2357.1c9.3-0.5,18.2,4,25.7,9.6c7.5,5.5,14.2,12.1,22.3,16.9c14.4,8.6,32.6,10.2,48.4,4.5"/>
<path class="st3" d="M279.3,2350.9c36.2,72.5,90,71.5,149,116.9c29.5,22.6,70.2,63.2,60.2,104.6c-4.4,18.3-20.8,30.9-37,39
	c-24.2,12-49.5,15.5-70.6,34c-20.6,18-33,48.2-22,73.1c10.2,23.3,36.8,35,61.9,40.6c55.7,12.4,109,30.2,165.1,42
	c57.5,12,115.8,20.7,174.5,24.2c111.4,6.4,227.3-6,327.3-58.2c216.8-150.5-82-289.2-227.5-312.3c-14.6-2.9-33.2-9.6-32.2-24.4
	c25.2-64.4,201.1,0.2,216.8-107.1C1042,2114,205.6,2118.8,279.3,2350.9L279.3,2350.9z"/>
<path class="st2" d="M872.8,2473c0-1.4,1.7-2.9,3.6-4.3c-4.5-1.1-8.2-2.3-9.5-3.8c-3.6-4.4-19.6,19-19.6,19s4.2,4,10.4,10.1
	C865.2,2489.9,870,2482.2,872.8,2473L872.8,2473z"/>
<path class="st2" d="M934.5,2547.8c-2.1-9.3-26.2-70.4-34.4-73.9c-1-0.4-2.1-0.8-3.6-1.2c15.6,24.8,25.5,53.2,35.3,80.7
	c0,0.1,0,0.2,0.1,0.4C934.2,2552.6,935.1,2550.5,934.5,2547.8L934.5,2547.8z"/>
<path class="st3" d="M896.7,2472.9c-5.7-1.5-13.9-2.6-20.3-4.2c-1.9,1.4-3.6,2.9-3.6,4.3c-2.7,9.2-7.6,16.9-15.1,21.1
	c14.2,13.9,38.9,38.6,47.8,49.9c9.3,11.7,21.3,13.4,26.5,10.1c0-0.1,0-0.2-0.1-0.4C922,2526.1,912.2,2497.6,896.7,2472.9
	L896.7,2472.9z"/>
<path class="st3" d="M675.9,2140.4c0,0,19.4,105.1,17.3,140.9l0.1,24c0,0,127.1,94.8,184,152.8c-11.3,21.9-28.1,30.9-28.1,30.9
	s-208.1-106.9-230.6-150.2c-22.5-43.3-59-178.3-59.6-234.3L675.9,2140.4z"/>
<path class="st6" d="M619.5,2112.4c0,0-8.8,172.4,63.1,232.9s170.5,123.4,170.5,123.4"/>
<path class="st2" d="M569.9,2173.1c0,0,16.1-5.1,25-4.5c8.6,0.5,63.4,9.9,82.9-20.6l-10.1-27.6L559,2092.7
	C559,2092.7,567,2169.8,569.9,2173.1z"/>
<path class="st3" d="M829.2,2112.4c0,0.5,21.1,11.2,30.1,10.8c9-0.4,3.6,13.1-8.9,9.8c8.1,7.5,18,23.4,18.3,32.7s-12,13.1-18.3,9.5
	s-33-26.8-39.9-55.9C823.1,2113.1,829.2,2112.4,829.2,2112.4z"/>
<path class="st7" d="M724.8,1872.4c0,0,9.8,102.9,43.4,151.5c33.8,48.6,61.6,85.7,61.6,85.7s4.5,6.4-5.4,13.7
	c-9.9,7.1-18.3,4.8-26.9-3.3c-8.6-8.2-82.3-71-100.8-133.9L724.8,1872.4L724.8,1872.4z"/>
<path class="st3" d="M543.4,2080c25.3,95.7,84.8,103.4,137.6,66.4c54.5-38.2,23.7-149.7,23.7-149.7l-79.9-18l-28.4,16.1l-70.6,40.5"
	/>
<path class="st2" d="M600.8,2020.9c0,0,21.1-19.2,37.1-19.4c16.1-0.2,52,13.2,66.6,11.5l3.8,0.7l-4.4-21.5c0,0-81.3-19.4-81.3-18.3
	c0,1.1-25.8,38.8-25.8,40C596.9,2015.1,600.8,2020.9,600.8,2020.9L600.8,2020.9z"/>
<path class="st3" d="M711.8,1724.5c-3.6,14.4-27.8,44.5-27.8,44.5s61.2,14.4,62.8,14.4s51.9-110.3,51.9-110.3l-13.3-10.9
	c0,0-19.2-6.5-55.1,5.1c-35.8,11.7-41.3,24.5-35.2,34.2c6.1,9.8,11.4,25.6,25.3,25.7c13.9,0.2,19.4-1.4,19.4-1.4"/>
<path class="st2" d="M708.9,1734.8c0,0,28.6-1,29.9-8.4c-21.8,6-26.8,0-26.8,0L708.9,1734.8z"/>
<path class="st2" d="M722.6,1836.2c14-9.4,35.3-10.8,47,2.9c13.4,17.6,7.7,42.4,13.9,62.7c26.1,75,72.6,90.9,147,76.6
	c1.9-53.9-75.1-68.7-75.2-121.7c0.4-15.7,9.4-30.2,9.5-45.8c0.1-15-7.9-28.7-14.3-42.4c-8.9-18.8-15.4-38.8-18.9-59.4
	c-2.9-23.2-9.8-57.6-38.7-58c-4.3,0.2-9,2.1-10.1,6.2c-1.4,5.5,4.6,10.7,3.8,16.3c-1.1,7.9-14.3,10.6-13.6,18.4c0.4,3,2.6,5.2,3.8,8
	c4.3,20.7-22.1,21.7-34.2,10.4c0,0,8.4,21.2,5.8,27.5c-2.6,6.3-35.7,43.2-35.7,43.2L722.6,1836.2L722.6,1836.2z"/>
<path class="st7" d="M589.8,1993.1c21.1-31.7,18.9-78.8,7.4-106c-11.5-27.3-7.9-41.7-0.6-58.5c7.3-16.9,75.1-65,75.1-65
	s15-5.7,26.8-0.5c11.8,5.2,33.6,6.1,33.6,6.1s3.8,98.5-6.8,143.8c-10.6,45.2-3.2,85.9-23.4,88.7c-20.2,2.7-36.4-10.1-51.1-11.7
	c-22.5-2.4-34.4,9.2-43.6,24.3C598.1,2029.1,589.8,1993.1,589.8,1993.1L589.8,1993.1z"/>
<path class="st3" d="M906.7,1601.2c0,0,9.9-29.8,22.7-45.1c12.9-15.4,25.7-18.8,20.8-8.8c-4.9,10-4,11.8,4.2,8.7
	c8.2-3.2,39.9-11.7,37.1,1.4s-19.4,30.2-44.5,30.8c-10.1,0-22.4,21.1-22.4,21.1L906.7,1601.2L906.7,1601.2z"/>
<path class="st7" d="M702.4,1836.9c0,0-6.8-9-5.4-28.3c1.4-19.2,11.1-33.9,17.9-36.3c6.8-2.4,92.3-42.6,124.8-73.4
	c32.5-30.8,65.8-103.4,65.8-103.4l24,11.4c0,0-35,89.8-75.9,132.1c-40.9,42.2-102.6,105.9-127.8,110.2"/>
<path class="st2" d="M535.4,2327.3c-18.9,16.5-33.2,33.2-47.4,55.7c-2.7,4.5-8.9,9.8-14.9,8.2c2.7,6.2,11.5,2.7,16.5-2
	c11.9-11.3,10.9-22.5,29.3-38c14.3-12.1,19.5-17,18.8-26.4C537.2,2325.9,536.3,2326.7,535.4,2327.3L535.4,2327.3z"/>
<path class="st3" d="M488,2383c14.2-22.5,28.4-39,47.4-55.7c1-0.6,1.7-1.4,2.3-2.5c-0.2-2.6-1-5.7-2-9.3c-1.8-5.8-2.6-10.7-2.9-14.6
	c-9.6,2.9-18.8,7.6-29.8,6.5c-1.5,5-4,10.9-8,16.2c-9.5,12.6-16.5,34-21.7,55.1c-1.4,5.9-1.3,10-0.2,12.4
	C479.1,2392.8,485.4,2387.6,488,2383L488,2383z"/>
<path class="st2" d="M532.8,2300.9c-0.6-7.1,0.5-10.9,0.5-10.9l-27.8,5.1c0,0-0.2,5.5-2.4,12.5
	C514,2308.4,523.1,2303.8,532.8,2300.9z"/>
<ellipse class="st2" cx="1010.5" cy="1728.5" rx="16.4" ry="16.4"/>
<polygon class="st3" points="1125.4,1919.5 1089.6,1970.3 1003.2,1909.4 1039,1858.6 1064.4,1914.4 "/>
<polygon class="st2" points="1125.4,1919.5 1064.4,1914.4 1039,1858.6 "/>
<polygon class="st3" points="338,1890.8 226.7,1953.9 237.2,1880.6 259.9,1882.9 269.7,1862.2 269.7,1862.2 "/>
<polygon class="st3" points="338,1890.8 269.7,1862.2 293.2,1811.8 "/>
<polygon class="st3" points="237.2,1880.6 226.7,1953.9 182,1874.9 "/>
<polygon class="st3" points="293.2,1811.8 269.7,1862.2 269.7,1862.2 259.9,1882.9 237.2,1880.6 182,1874.9 "/>
<line class="st4" x1="237.2" y1="1880.6" x2="237.2" y2="1880.6"/>
<path class="st1" d="M645.6,2714.7c0,0-174.1-163.4-247.3-412.7"/>
<rect x="639.9" y="2571.2" class="st3" width="273.7" height="162.9"/>
<rect x="639.9" y="2734.1" class="st2" width="273.7" height="14.2"/>
<polygon class="st2" points="783.8,2670.1 639.9,2571.2 913.5,2571.2 "/>
<polygon class="st3" points="783.8,2665.9 639.9,2567 913.5,2567 "/>
<line class="st4" x1="639.9" y1="2748.4" x2="744.7" y2="2643.3"/>
<line class="st4" x1="816.5" y1="2645.2" x2="913.5" y2="2748.4"/>
<ellipse transform="matrix(0.6399 -0.7684 0.7684 0.6399 -1871.666 1167.6847)" class="st8" cx="310.2" cy="2581" rx="47" ry="34.2"/>
<ellipse transform="matrix(0.8858 -0.464 0.464 0.8858 -1061.2751 848.7162)" class="st9" cx="1194" cy="2581" rx="16.3" ry="22.5"/>
<path class="st0" d="M1044.4,2464.3c0,0,64.7,19.6,97.7,68.9"/>
<path class="st3" d="M612.6,2037c0,0-31.2-168.9-111.4-119.8c-80.2,49-4.2,384.9-4.2,384.9l41.5-7.6c0,0,17.4-176.1,0-242.5"/>
<path class="st6" d="M518.3,2289.9c0,0-33-320.5,7.5-321.3s56.5,150.9,106.3,143.8c49.7-7.1,23.8-71.2,29.2-94.6"/>
</svg>
