<?xml version="1.0" encoding="utf-8"?>
<!-- Generator: Adobe Illustrator 24.0.1, SVG Export Plug-In . SVG Version: 6.00 Build 0)  -->
<svg version="1.1" id="Layer_1" xmlns="http://www.w3.org/2000/svg" xmlns:xlink="http://www.w3.org/1999/xlink" x="0px" y="0px"
	 viewBox="0 0 2369 819" style="enable-background:new 0 0 2369 819;" xml:space="preserve">
<style type="text/css">
	.st0{fill:#009CD9;}
	.st1{fill:none;stroke:#FFFFFF;stroke-linecap:square;}
	.st2{fill:none;stroke:#F8F8FF;}
	.st3{fill:#FFFFFF;stroke:#1B2129;}
	.st4{fill:#9644AA;stroke:#1B2129;}
</style>
<title>Hero Section_2</title>
<g id="Page-1">
	<g id="Hero-Section_2" transform="translate(0.924452, 0.000000)">
		<path id="header-bg" class="st0" d="M114.3,0h2253.8c-199.6,302.3-389.5,459.7-569.5,472.2c-270,18.8-301.6,156.8-559.9,266.9
			C1053,818.3,83.5,972.4,4.6,392C-11.2,275.9,11.2,136.9,114.3,0z"/>
		<path id="Line" class="st1" d="M4.7,239c142.2,303.6,292.5,418,427.2,443c365.4,68,619.7-120.9,941.9-195
			c252.2-58,479.8-66.6,682.9-25.9"/>
		<ellipse id="shape-line" class="st2" cx="1724.1" cy="326.5" rx="591.5" ry="194"/>
		<circle id="Oval" class="st3" cx="2119.6" cy="562.5" r="170.5"/>
		<circle id="Oval_1_" class="st4" cx="2289.6" cy="495.5" r="50"/>
		<circle id="Oval_2_" class="st3" cx="1890.6" cy="714.5" r="18"/>
	</g>
</g>
</svg>
