<?xml version="1.0" encoding="utf-8"?>
<!-- Generator: Adobe Illustrator 26.5.0, SVG Export Plug-In . SVG Version: 6.00 Build 0)  -->
<svg version="1.1" id="Layer_1" xmlns="http://www.w3.org/2000/svg" xmlns:xlink="http://www.w3.org/1999/xlink" x="0px" y="0px"
	 viewBox="0 0 2000 2000" enable-background="new 0 0 2000 2000" xml:space="preserve">
<g>
	<g>
		<path fill="#140700" d="M838.66,267.33C802.83,344,762.88,423.53,764.75,510.2c1.01,39.8,9.68,84.55,43.23,109.2
			c21.18,15.58,53.92,21.52,79.82,17.82c14.03-2.49,27.68-7.2,40.5-13.41c21.9-10.4,41.48-25.78,57.5-44.53
			c-20.86,30.78-53.55,54.02-89.5,64.32c-19.86,5.74-41.8,4.39-61.74-0.38c-11.06-2.94-21.68-6.88-31.26-13.49
			c-10.74-7.39-20.01-16.86-27.28-27.7c-17.65-27.02-22.4-60.09-23.23-91.64C751.75,422.04,794.54,341.25,838.66,267.33
			L838.66,267.33z"/>
	</g>
	<g>
		<path fill="#140700" d="M887.55,362.2c-22.61,21.93-45.52,45.1-60.01,73.2c-3.48,6.92-6.27,14.25-8.21,21.56
			c-1.12,5.2-1.43,9.66,3.19,11.98c5.02,2.18,11.17,2.46,16.65,3.44c11.89,1.69,23.77,2.49,35.82,2.89
			c-15.93,2.63-32.22,2.81-48.46,1.01c-2.1-0.28-4.33-0.68-6.61-1.64c-7.92-3.17-9.2-11.78-7.52-19.15
			C821.48,416.24,855.07,383.76,887.55,362.2L887.55,362.2z"/>
	</g>
	<g>
		<path fill="#140700" d="M816.43,528.66c52.6-2.94,103.37-17.23,149.83-42.05C925.37,520.54,869,536.32,816.43,528.66
			L816.43,528.66z"/>
	</g>
	<g>
		<path fill="#140700" d="M1050.84,435.51c3.26-12.43,17.03-17.64,28.4-20.14c5.81-1.48,12.85-1.56,16.96,3.62
			c5.84,7.2,7,19.67,6.57,28.62c-1.33,28.26-20.95,52.32-45.17,65.27c-7.45,3.61-16.1,9.21-24.85,6.78
			c-6.56-1.94-10.15-9.23-9.56-15.67c0.48-6.02,3.81-11.08,7.57-15.39c8.88-10.17,21.32-17.5,34.39-20.01
			c-9.98,3.61-18.98,9.37-26.07,16.85c-4.96,5.41-10.11,11.49-10.5,18.84c-0.12,3.91,2.02,8.47,5.93,9.38
			c4.23,0.99,8.82-1.29,12.85-3.28c2.31-1.13,4.56-2.38,6.78-3.65c17.46-10.09,32.64-25.46,39.01-44.87
			c3.22-9.52,4.25-19.81,2.59-29.72c-0.72-4.44-2.01-9.48-5.72-11.97c-3.3-2.21-8.91-1.08-13.93-0.3
			C1066.15,421.66,1055.1,425.44,1050.84,435.51L1050.84,435.51z"/>
	</g>
	<g>
		<path fill="#140700" d="M894.04,639.01c5.74,3.73,5.02,10.9,5.47,16.69c0.75,15.07,0.58,30.23-0.46,45.25
			c-0.83-15-2.52-29.87-5.1-44.63c-0.38-1.99-0.9-5.3-1.38-7.14c-0.42-1.51-0.99-3.2-2.24-3.69
			C890.33,645.48,894.04,639.01,894.04,639.01L894.04,639.01z"/>
	</g>
	<g>
		<path fill="#140700" d="M1036.36,518.8c-2.39,29.37-5.01,58.74-4.53,88.21c0.46,29.47,4.79,58.77,10.86,87.61
			c-11.44-42.96-16.8-87.46-15.26-131.93c0.28-14.81,0.88-29.59,1.48-44.35L1036.36,518.8L1036.36,518.8z"/>
	</g>
	<g>
		<path fill="#140700" d="M849.16,550.1c6.47-0.04,12.07,1.01,18.17,2.07c6.08,1.21,11.67,2.28,17.68,4.68
			C873.99,563.16,857.16,559.96,849.16,550.1L849.16,550.1z"/>
	</g>
	<g>
		<path fill="#140700" d="M952.19,274.33c26.46-8.26,59.66,11.67,64.69,38.96c-5.22-4.62-9.94-8.88-14.9-12.72
			C986.88,288.58,970.51,280.79,952.19,274.33L952.19,274.33z"/>
	</g>
	<g>
		<path fill="#140700" d="M1005.12,231.2c-10.95,13.36-28.17,15.65-43.72,8.67c-13.52-5.27-25.98-15.87-40.99-14.41
			c-9.25,0.94-17.8,6.04-25.19,11.69c-13.72,10.88-25.39,26.45-41.26,35.34c-7.1,3.94-15.2,6.23-22.74,8.3
			c-5.02,1.35-10.17,2.63-15.51,3.44c-10.79,1.76-22.74,1.41-32.92-3.2c-15.17-6.83-27.28-19.91-32.64-35.64
			c-3.22-10.35-3.73-21.64-1.01-32.17c2.74-10.39,9.01-19.34,15.89-27.27c16.28-18.26,39.34-43.27,66.34-31.81
			c4.96,2.07,9.5,4.95,13.54,8.35c7.46,6.28,14.46,13.65,24.72,12.79c4.64-0.22,9.35-1.53,14.07-3.11
			c19.27-6.65,38.36-14.78,58.16-20.16c25.36-7.21,53.65-9.17,78.65,1.06c14.51,5.68,27.83,15.06,40.97,22.38
			c8.82,5.03,18.01,8.51,27.22,12.67c14.19,6.38,28.58,13.4,41.38,22.66c4.55,3.26,8.83,7.04,12.38,11.38
			c10.09,12.05,15.88,28.64,12.2,44.32c-1.71,6.36-4.02,12.57-6.19,18.78c-16.57,45.93-39.28,89.73-67.98,129.26
			c0,0-1.12,1.56-1.12,1.56c-0.21,0.27-0.31,0.48-0.68,0.88c-0.36,0.3-0.88,0.61-1.45,0.26c-0.44-0.33-0.48-0.59-0.56-0.98
			c-0.05-1.62,0.53-3.37,2.24-3.89c0,0,0.34,1.16,0.34,1.16c-0.81,0.28-1.19,1.71-1.02,2.44c-0.01,0.08,0.14,0.11-0.15-0.14
			c-0.25-0.18-0.52-0.07-0.62-0.03c0.73-1.28,4.38-7.48,5.23-8.95c25.6-44.49,46.28-91.89,60.45-141.23
			c3.19-12.55-1.87-25.61-10.24-35.35c-6.27-7.21-14.48-12.11-22.7-16.9c-8.59-4.88-17.64-9.19-26.85-13.35
			c-9.38-4.28-19.31-8.2-28.15-13.52c-17.45-10.17-33.23-22.47-52.81-26.97c-39.73-9.18-78.94,8.44-116.76,19.02
			c-10.33,3.09-22.47,4.52-31.86-2.36c-4.53-3.13-8.09-6.94-11.82-10.23c-3.68-3.27-7.81-6.02-12.22-8
			c-19.66-9.1-38.5,5.39-51.39,19.4c-13.5,14.58-26.87,30.37-24.26,51.55c1.33,18.93,15.28,35.96,32.56,42.81
			c8.75,3.49,18.05,3.36,27.32,1.82c4.75-0.82,9.55-1.94,14.38-3.25c7.19-1.99,14.06-3.72,20.43-7.15
			c19.97-11.25,33.04-32.33,54.78-41.67c10-4.76,22.51-5.63,32.82-1.3c13.24,5.29,23.72,15,37.41,18.76
			c10.73,2.61,22.51-0.7,30.4-8.51C1004.21,230.4,1005.12,231.2,1005.12,231.2L1005.12,231.2z"/>
	</g>
	<g>
		<path fill="#140700" d="M1050.86,262.46c9.87,4.06,20.02,6.4,30.19,6.65c10.42,0.14,21.45-0.58,31.93,1.17
			c10.8,1.8,21.56,4.42,31.21,9.81c7.98,4.46,11.78,12.74,11.96,21.59c0.13,2.7,0.04,5.37-0.15,8.04
			c-1.24-5.18-2.3-10.43-4.55-14.88c-4.3-9.46-15.28-11.77-24.46-14.18c-9.99-2.49-20.16-4-30.45-4.55
			C1079.92,275.76,1064.04,273.34,1050.86,262.46L1050.86,262.46z"/>
	</g>
	<g>
		<path fill="#140700" d="M1073.04,296c18.49,22.83,57.57,42.32,48.64,77.09c-0.37-2.92-0.78-5.8-1.51-8.63
			C1113.09,336.54,1082.05,323.08,1073.04,296L1073.04,296z"/>
	</g>
	<g>
		<path fill="#140700" d="M1045.5,365.28c-1.59,30.65-9.43,60.74-20.63,89.22c0,0-3.57-3.76-3.57-3.76
			c4.68-1.04,9.28-2.65,13.72-4.75c4.51-2.12,8.76-4.75,12.8-7.75c-1.47,2.09-3.16,4.03-4.99,5.85
			c-5.58,5.54-12.42,9.68-19.91,12.27c0,0-5.12,1.76-5.12,1.76C1026.7,427.04,1035.09,395.93,1045.5,365.28L1045.5,365.28z"/>
	</g>
	<g>
		<path fill="#140700" d="M894.65,268.8c-13.11-0.78-24.51,1.1-36.58,4.95c-12.18,3.79-23.43,9.52-36.2,12.81
			c12.46-16.26,32.73-27.82,53.67-25.74C882.52,261.61,889.54,264.06,894.65,268.8L894.65,268.8z"/>
	</g>
	<g>
		<path fill="#140700" d="M1054.69,318.4c4.99,12.25,5.98,25.37,13.56,36.06c10.53,13.8,27.08,23.62,34.15,40.44
			c1.81,4.25,2.85,8.87,2.68,13.37c-2.81-8.57-8.18-15.28-14.21-21.32C1062.82,361.02,1055.1,359.47,1054.69,318.4L1054.69,318.4z"
			/>
	</g>
	<g>
		<path fill="#140700" d="M809.33,327.13c-4.53-3-9.31-7-14.98-6.39c-4.45,0.32-5.89,4.15-6.8,8.04c-0.58,2.15-0.92,4.64-1.12,6.87
			c-1.03,13.26,1.54,27.16-0.26,40.7c-2.11-6.7-4.03-13.26-5.43-20.1c-2.27-11.34-4.09-28.03,4.25-37.63
			c4.77-4.89,12.84-3.94,17.63,0.11C805.5,321.07,807.52,324,809.33,327.13L809.33,327.13z"/>
	</g>
	<g>
		<path fill="#140700" d="M844.47,754.08c-47.06,10.28-92.48,26.89-136.29,46.69c-10.95,4.95-21.78,10.16-32.51,15.55
			c-10.74,5.39-21.46,10.76-30.51,18.1c-9.14,7.33-15.82,17.03-21.04,27.48c-5.17,10.34-9.55,22.11-13.43,33.06
			c-7.92,22.39-13.99,45.92-18.59,69.24c-25.15,130.22-13.11,264.75-37.93,395.16c-9.23,59.41-16.49,119.12-21.57,179.04
			c-3.59,47.76-8.58,95.95-5.44,143.79c1.78,23.8,6.21,47.49,15.04,69.67c0,0-0.74-0.89-0.74-0.89
			c27.65,18.48,61.1,27.1,94.18,27.76c11.01,0,22.55,0.56,32.83-4.05c-10.13,4.98-21.79,4.84-32.83,5.23
			c-22.4,0.31-44.91-3.15-66.04-10.76c-10.56-3.87-20.75-8.84-30.3-14.88c0,0-0.49-0.31-0.49-0.31l-0.25-0.58
			c-19.18-45.02-19.77-95.26-17.81-143.32c3.35-78.36,10.63-156.53,21.82-234.16c1.63-11.57,6.34-41.52,8.22-53.59
			c7.05-47.5,9.85-95.51,12.32-143.5c4.06-78.26,6.95-157.37,25.4-233.89c4.62-19.07,10.41-38.15,17.34-56.52
			c3.76-9.67,7.79-20.14,12.68-29.37c12.94-25.48,30.03-35.56,54.98-47.14C727.91,786.02,785.06,764.88,844.47,754.08L844.47,754.08
			z"/>
	</g>
	<g>
		<path fill="#140700" d="M1017.95,831.18c-27.56,25.05-74.01,29.74-104.23,6.84C951.18,847.87,981.9,844.15,1017.95,831.18
			L1017.95,831.18z"/>
	</g>
	<g>
		<path fill="#140700" d="M736.97,1774.96c7.24,6.42,16.68,9.2,25.64,12.31c27.18,9.08,55.28,15.21,83.61,19.28
			c37.78,5.5,75.95,7.86,114.1,6.6c38.13-1.04,76.12-5.13,113.83-10.91c19.12-2.99,38.48-3.69,57.65-3.89
			c33.31-0.29,66.64,0.96,99.35-5.68c0,0,1.73-0.32,1.73-0.32s1.71-0.42,1.71-0.42s3.41-0.84,3.41-0.84
			c29.92-6.77,56.7-23.23,82.86-38.98c7.87-4.73,14.97-9.97,19.94-17.66c5.08-7.65,8.9-16.52,12.97-24.85
			c4.07-8.41,8.21-17.47,12.04-25.93c38.4-87.01,71.52-177.3,108.31-265.24c4.05-11.09,7.49-22.27,9.93-33.75
			c2.25-11.29,3.79-23.27,4.11-34.78c0.85-23.51-2.15-47.07-7.26-69.99c-10.4-46.51-29.79-89.94-48.04-134.15
			c-14.91-35.31-27.55-71.83-37.39-108.9c-10.06-36.98-18.39-74.37-26.92-111.68c-4.19-18.53-8.05-37.07-16.75-54
			c-26.55-55.04-87.31-69.02-141.08-84.86c-6.86-2.09-13.81-4.07-20.61-6.25c-11.38-3.72-22.45-8.38-33.64-12.58
			c-17.84-6.89-35.65-13.85-53.68-20.25c18.18,5.95,36.17,12.48,54.17,18.93c11.27,3.96,22.36,8.37,33.78,11.85
			c6.79,2.08,13.94,3.91,20.69,5.82c36.73,10.27,75.49,18.72,107.27,41.03c24.17,16.83,40.6,42.92,48.73,70.96
			c12.22,46.31,21.93,93.16,35.09,139.09c10.19,36.8,22.91,72.58,37.92,107.7c24.02,57.07,50.87,115.64,56.03,178.41
			c1.05,12.04,1.21,24.45,0.48,36.5c-0.67,9.51-2.01,19.71-3.91,29.05c-4.48,21.4-12.46,41.87-20.86,61.9
			c-37.74,87.69-68.86,178.61-110.59,264.89c-4.37,8.79-8.17,17.59-13.74,25.87c-5.5,8.52-14.1,15.02-22.64,20.01
			c-8.28,4.92-16.47,9.81-24.89,14.53c-14.75,8.23-30.13,16.01-46.38,21.01c-2.49,0.79-8.08,2.48-10.57,3.02
			c-1.64,0.33-5.44,1.32-7.12,1.67c-15.3,3.32-31.26,4.72-46.89,5.41c-38.22,1.41-76.46-1.97-114.3,3.4
			c-75.83,10.86-153.45,13.88-229.21,0.82c-28.35-4.66-56.43-11.34-83.45-21.16C753.48,1784.61,744.05,1781.56,736.97,1774.96
			L736.97,1774.96z"/>
	</g>
	<g>
		<g>
			<path fill="#140700" d="M1283.97,1394.31c1.86,3.44,4.75,6.49,5.32,10.49c0.72,6.42,0.09,12.84-1.52,19.1
				c-5.72,20.62-20.07,37.43-28.08,56.97c-11.38,25.36-27.14,61.72-39.3,86.35c0,0-4.89,10.03-4.89,10.03
				c-1.72-19.4-2.68-39.36-2.02-58.83c1.58-47.32,10.36-94.01,15.68-140.92c4.11-40.34,22.79-78.18,20.45-119.11
				c17.09,30.97,30.74,63.71,42.96,96.84c3.34,7.85,4.18,9.91-3.26,15.19C1282.14,1376.25,1279.28,1386.02,1283.97,1394.31
				L1283.97,1394.31z M1283.97,1394.31c-4.76-8.37-1.88-18.03,5.24-24.01c3.97-3.13,7.14-5.26,4.7-10.81
				c-12.65-31.6-26.3-63.03-43.98-92.18c0,0,3.67-1.05,3.67-1.05c1.49,25.53-5.01,50.63-10.15,75.28
				c-2.55,12.29-4.84,24.47-5.78,36.77c-0.6,6.28-1.12,12.64-1.86,18.9c-6.26,56.13-17.44,111.81-15.08,168.42
				c0,0-5.78-1.22-5.78-1.22c15.15-27.67,29.13-56.01,43.09-84.32c9.64-21.46,27.34-39.63,31.02-63.49c0.64-3.9,0.52-7.87,0.18-11.8
				C1288.69,1400.82,1285.81,1397.75,1283.97,1394.31L1283.97,1394.31z"/>
		</g>
	</g>
	<g>
		<path fill="#140700" d="M931.73,844.13c-0.81-10.94-1.12-22.59,3.68-32.82c0.82-1.74,1.85-4.08,2.45-5.84
			c0.81-2.16,1.71-4.12,2.29-5.94c0.6-1.83,0.81-3.45,0.49-4.85l-0.8-3.48c19.97-1.77,38.35,5.53,54.03,17.48
			c23.68,17.63,39.48,43.17,54.99,67.65c0,0-3.72,0.99-3.72,0.99c0.44-3.2,1.25-6.08,2.03-9.14c5.75-20.43,12.29-40.57,18.7-60.8
			c4.29-12.2,19.51-64.93,30.65-67.46c1.16-0.35,2.83-0.26,3.99,0.35c0,0-3.67,7.41-3.67,7.41c-4.83-2.36-8.99-5.53-12.68-8.96
			c-8.22-7.71-14.69-16.49-21.28-25.49c-3.32-5.05-5.34-11.03-8.29-16.02c-2.05-3.23-3.44-4.91-6.75-3.14
			c-1.24,0.65-2.72,1.68-3.89,2.51c-26.65,18.35-56.24,37.98-83.45,55.41c-0.65,0.44-3.63,2.28-4.27,2.82
			c-7.55,6.32-10.92,16.21-15.47,24.8c-1.12,2.13-2.29,4.24-3.6,6.27c0,0-0.81-0.46-0.81-0.46c5.55-11.64,7.43-26.81,18.19-35.69
			c1.74-1.3,12.27-9.34,14.29-10.81c17.6-13.28,39.76-29.34,57.74-42.26c2.16-1.45,12.76-9.17,14.86-10.44
			c12.88-7.87,20.48,1.3,25.15,12.77c1.43,3.2,2.62,6.18,4.36,9c3.2,4.67,6.83,9.64,10.23,14.1c5.47,6.97,11.64,14.02,19.34,18.18
			c0,0-3.67,7.41-3.67,7.41c0.53,0.27,1.3,0.35,1.78,0.19c0.33-0.1,0.34-0.17,0.27-0.11c-0.15,0.07-0.56,0.44-0.92,0.84
			c-4.44,5.43-7.53,12.25-10.7,18.59c-6.53,13.53-12.34,27.4-17.76,41.47c-6.44,16.9-12.27,34.08-16.84,51.58
			c-1.34,5.67-3.03,11.71-3.47,17.41c0,0-0.33,5.6-0.33,5.6c-14.59-19.92-29.78-39.78-47.41-56.96
			c-15.56-15.28-35.25-28.68-57.73-29.04c0,0,3.02-3.64,3.02-3.64c0.42,2.71-0.17,5.5-1.15,7.9c-0.91,2.25-2.01,4.16-2.87,6
			c-0.83,1.87-2.07,4.16-3.08,5.93c-1.04,1.84-1.87,3.64-2.63,5.58c-3.03,7.9-3.58,16.67-4.34,25.12
			C932.66,844.13,931.73,844.13,931.73,844.13L931.73,844.13z"/>
	</g>
	<g>
		<path fill="#140700" d="M938.67,793.45c-46.25,8.48-65.97,55.67-86.55,92.5c0,0-7.25,12.79-7.25,12.79l-0.27-14.79
			c-0.73-40.71-11.51-81.31-6.08-122.14c0.39-3.61,1.11-7.3,2.42-10.65c3.38-8.95,9.57-16.11,15.73-22.95
			c5.95-6.58,11.95-12.73,16.16-19.78c1.13-1.87,2.32-3.87,3.83-5.84c3.86-5.56,11.4-9.82,18.34-7.28c2.25,0.67,4.17,2.63,5.73,4.35
			c-2.13,4.12-2.59,8.8-2.1,13.5c0.61,6.07,2.25,12.39,5.36,17.68c4.51,7.42,12.85,11.81,18.29,18.7
			c4.09,5.53,6.86,11.82,9.34,18.12C934.76,776.01,937.54,784.59,938.67,793.45L938.67,793.45z M938.67,793.45
			c-2.94-12.14-12.48-35.27-21.54-43.62c-4.22-3.65-8.75-6.51-13.01-10.57c-3.46-3.16-6.32-7.42-8.13-11.76
			c-3.62-8.89-5.9-18.99-2.62-28.42c0,0,0.74,3.78,0.74,3.78c-0.77-0.73-1.96-1.11-3.42-1.03c-5.69,0.47-8.31,6.09-11.02,10.64
			c-2.3,4.05-5.09,7.84-7.94,11.32c-5.52,6.78-11.67,13.04-16.61,20.05c-3.8,5.41-6.73,11.01-7.4,17.48
			c-5.26,40.86,5.37,81.45,4.94,122.61c0,0-7.52-2-7.52-2s8.4-14.27,8.4-14.27C872.64,834.6,896.75,796.65,938.67,793.45
			L938.67,793.45z"/>
	</g>
	<g>
		<path fill="#140700" d="M696.27,1075.61c-9.36,112.82,9.51,225.01,13.81,337.6c4.49,112.45,7.63,225.79,7.28,338.32
			c-6.04-114.72-11.05-264.62-16.8-380.18C694.84,1273.05,682.79,1173.8,696.27,1075.61L696.27,1075.61z"/>
	</g>
	<g>
		<path fill="#140700" d="M1208.36,1165.71c-10.33-10.17-11.98-25.68-13.3-39.35c-1.29-13.96-2.21-27.97-2.48-42.02
			c-0.91-57.6,5.87-118.41,36.02-168.76c13.57-22.64,32.92-42.35,56.16-54.89c-27.47,19-47.54,46.03-60.37,76.26
			c-22.23,52.92-26.28,111.37-26.09,168.27c0.04,6.97,0.16,13.94,0.4,20.91C1199.07,1139.85,1199.41,1154.52,1208.36,1165.71
			L1208.36,1165.71z"/>
	</g>
	<g>
		<path fill="#140700" d="M896.1,863.27c20.07,8.04,41.04,14.83,62.67,12.11c14.9-1.81,28.47-7.67,42.96-12.06
			c-7.67,5.5-15.74,10.37-24.56,14.1C950.09,889.67,918.12,882.02,896.1,863.27L896.1,863.27z"/>
	</g>
	<g>
		<path fill="#140700" d="M670.83,851.3c0.86,29.4,0.92,58.6,1.85,87.93c0.76,29.34,2.38,58.49,3.18,87.89
			c-6.72-28.74-9.71-58.21-10.64-87.67C664.48,909.98,665.79,880.38,670.83,851.3L670.83,851.3z"/>
	</g>
	<g>
		<path fill="#140700" d="M931.33,651.93c-7.15,11.39-9.09,24.89-2.87,36.89c1.93,3.87,4.55,7.49,7.96,11.1
			c-4.94-0.85-9.47-3.86-12.82-7.82c-3.36-3.99-5.59-9.07-6.15-14.43C916.32,667.37,921.69,655.96,931.33,651.93L931.33,651.93z"/>
	</g>
	<g>
		<path fill="#140700" d="M1037.03,250.6c-11.17-14.91-29.39-22.32-47.39-20.12c-23.15,3.15-45.35,22.06-69.84,15.79
			c25.26-0.71,43.87-20.25,68.94-23.09C1008.32,220.99,1029.99,231.7,1037.03,250.6L1037.03,250.6z"/>
	</g>
	<g>
		<path fill="#140700" d="M694.37,1270.8c-7.79-22.43-12.69-45.66-16.31-69.06c-3.45-23.43-5.62-47.07-4.77-70.8
			c5.07,23.13,8.54,46.36,12.14,69.69C688.86,1223.98,692.39,1247.2,694.37,1270.8L694.37,1270.8z"/>
	</g>
	<g>
		<path fill="#140700" d="M921.03,348.62c16.68-17.95,52.59-8.91,58.69,14.86c-9.43-5.67-17.94-9.64-28.13-12.23
			C941.41,348.66,932.02,348.09,921.03,348.62L921.03,348.62z"/>
	</g>
	<g>
		<path fill="#140700" d="M875.62,347.26c-10.27-4.17-19.26-4.07-29.73-3.5c-10.56,0.7-20.34,2.27-31.31,3.31
			c10.7-13.16,32.43-18.18,48.15-11.84C868.21,337.5,873.51,341.58,875.62,347.26L875.62,347.26z"/>
	</g>
	<g>
		<path fill="#140700" d="M1325.51,1367.21c19.67-10.47,48.4-4.39,62.08,13.23c-10.18-4.07-19.82-7.62-30.35-9.82
			C1346.72,1368.31,1336.46,1367.63,1325.51,1367.21L1325.51,1367.21z"/>
	</g>
	<g>
		<path fill="#140700" d="M1303.7,1404.71c37.91-6.3,78.36,18.2,90.62,54.57c-5.75-7.44-11.67-14.41-18.22-20.63
			C1356.41,1419.42,1330.8,1408.78,1303.7,1404.71L1303.7,1404.71z"/>
	</g>
	<g>
		<path fill="#140700" d="M1299.77,1366.85c-39.99-55.26-60.32-121.24-88.03-182.9C1248.74,1241.02,1268.79,1306.62,1299.77,1366.85
			L1299.77,1366.85z"/>
	</g>
	<g>
		<path fill="#140700" d="M1222.77,1561.25c-10.99,31.72-24.65,64.15-37,95.42c-4.87,12.51-11.4,26.05-15.05,38.79
			c-4.35,14.63-4.47,29.99,1.94,43.96c0,0-4.71-2.43-4.71-2.43c32.02-5.81,67.84-11.13,97.77,5.24c9.79,5.25,18.46,12.8,24.16,22.15
			c-6.74-8.52-15.75-14.9-25.6-19.21c-31.31-13.76-65.85-5.8-97.96,0.91c-8.78-16.73-10.04-35.21-4.7-53.18
			c3.22-11.64,8.43-23.27,13.08-34.25c4.54-11.05,9.18-22.39,13.96-33.32c2.37-5.49,7.24-16.6,9.7-22.06
			c6.53-14.66,13.13-29.27,19.83-43.86C1218.2,1559.42,1222.77,1561.25,1222.77,1561.25L1222.77,1561.25z"/>
	</g>
	<g>
		<path fill="#140700" d="M1155.47,1804.19c-5.9-9.66-4.08-21.39-1.51-29.52c2.26-7.15,4.51-14.3,6.76-21.45l4.63-14.71l8.92,2.81
			l-4.63,14.71c-2.25,7.16-4.5,14.31-6.76,21.46c-2.8,8.88-2.6,16.63,0.58,21.83L1155.47,1804.19z"/>
	</g>
	<g>
		<path fill="#140700" d="M775.94,177.32c-6.72,8.99-10.75,20.8-8.35,31.94c2.39,11.16,12.42,18.22,22.5,22.18
			c13.43,5.48,29.31,7.46,42.69,1.35c13.79-6.37,22.89-19.41,35.17-28.66c14.56-11.24,34.12-16.03,52.2-12.61
			c9.65,2.04,17.83,8.27,26.94,11.02c6.95,2.01,14.57,1.74,21.87,1.37c21.83-0.84,49.39-6.96,69.47,3.73
			c10.04,5.68,14.78,16.12,15.31,27.31c0,0,0.17,2.89,0.17,2.89c-0.41-2.67-0.9-5.89-1.68-8.48c-0.16-0.74-0.64-1.98-0.91-2.71
			c-2.35-7.09-7.51-13.19-14.25-16.45c-17.02-7.53-38.02-3.15-56.07-1.31c-11.65,1.28-23.95,3.19-35.76,0.2
			c-9.5-2.48-17.31-8.42-26.67-10.49c-16.03-2.75-33.26,1.57-46.23,11.34c-15.26,11.86-27.97,29.69-48.89,32.12
			c-18.12,2.47-43.51-5.7-54.24-20.9C759.82,207.44,765.34,188.57,775.94,177.32L775.94,177.32z"/>
	</g>
	<g>
		<path fill="#140700" d="M821.48,153.03c-7.17,1.49-10.31,9.06-11.26,15.62c-0.73,6.34-1,13.97,2.24,19.54
			c5.22,8.46,17.04,9.41,25.79,6.66c10.06-3.14,18.13-9.46,28.27-13.46c13.5-5.28,29.22-7.73,43.47-4.23
			c6.7,1.79,12.76,4.97,19.43,5.16c6.67,0.13,12.83-2.25,19.26-4.13c6.79-2.17,14.17-3.89,21.37-4.32
			c14.34-0.91,28.75,1.52,42.62,4.69c2.85,0.68,7.55,1.66,10.39,2.55c10.31,2.96,19.89,8.25,29.08,13.42c0,0,4.58,2.6,4.58,2.6
			c10.96,6.16,18.72,18,19.72,30.45c-0.71-3.44-1.85-6.76-3.42-9.85c-3.04-6.15-7.75-11.43-13.42-15.21
			c-2.29-1.64-6.56-3.48-9.14-4.74c-6.32-3.05-12.59-6.09-19.03-8.44c-9.65-3.66-20.07-5.15-30.2-6.79
			c-13.39-2.11-27.23-3.1-40.53-0.1c-6.75,1.48-13.24,4.12-20.11,5.82c-3.69,0.92-7.58,1.69-11.42,1.51
			c-4-0.14-7.83-1.09-11.29-2.24c-5.14-1.68-9.4-3.53-14.49-4.3c-11.55-1.32-23.57,0.15-34.48,4.23
			c-12.84,4.74-25.75,14.88-40.44,13.62c-9.65-0.62-19.48-6.38-20.97-16.6C805.91,173.86,808.37,154.72,821.48,153.03L821.48,153.03
			z"/>
	</g>
	<g>
		<path fill="#140700" d="M870.38,1409.92c-1.86,5.27-3.11,10.41-3.32,15.15c-0.24,5.36,1.98,10.49,4.17,15.39
			c20.17,45.3,40.34,90.6,60.51,135.9c-2.91-7.64,21.7-54.41,24.93-65.62c7.39-25.66,22.1-49.82,33.85-73.82
			c0.94-1.92,1.9-3.95,1.73-6.08c-0.14-1.79-1.06-3.4-1.96-4.95c-16.19-27.87-30.52-55.85-43.56-85.58
			c-3.32-7.58-23.64-35.33-20.12-42.38c-12.08,24.2-24.29,48.33-36.63,72.4C884.45,1381.12,875.29,1395.98,870.38,1409.92z"/>
	</g>
	<g>
		<path fill="#140700" d="M1041.14,1418.32c-1.86,5.89-3.11,11.45-3.32,16.26c-0.24,5.44,1.98,9.83,4.17,14
			c20.17,38.59,40.34,77.19,60.51,115.78c-2.91-6.68,21.7-61.62,24.93-73.91c7.39-28.12,22.1-57.17,33.85-85.07
			c0.94-2.23,1.9-4.58,1.73-6.65c-0.14-1.74-1.06-3.05-1.96-4.3c-16.19-22.49-30.52-45.71-43.56-71.1
			c-3.32-6.47-23.64-27.47-20.12-35.69c-12.08,28.21-24.29,56.41-36.63,84.58C1055.21,1384.84,1046.05,1402.75,1041.14,1418.32z"/>
	</g>
	<g>
		<path fill="#140700" d="M1008.05,1566.09l-60.51-115.78c-2.17-4.16-4.88-9.33-4.59-15.9c0.22-4.81,1.36-10.44,3.49-17.21l0,0
			c3.65-11.57,9.48-24.15,14.62-35.24c1.87-4.03,3.63-7.84,5.12-11.24c12.2-27.85,24.51-56.3,36.61-84.54c0,0,0-0.01,0.01-0.02
			l6.86,2.94c0,0,0,0,0,0.01c-1.61,3.81,8.91,17.41,13.4,23.22c3.06,3.96,5.48,7.09,6.61,9.29c12.69,24.7,26.85,47.81,43.27,70.62
			c0.96,1.34,2.43,3.37,2.65,6.18c0.25,3.04-1.01,6.01-2.01,8.4c-3.09,7.34-6.44,14.88-9.68,22.18c-9.15,20.61-18.62,41.93-24,62.39
			c-1.19,4.52-4.94,14.06-9.29,25.12c-6.18,15.71-16.53,42.01-15.73,46.62c0,0-0.02-0.1-0.09-0.26L1008.05,1566.09z M953.56,1419.44
			c-1.91,6.06-2.97,11.2-3.15,15.3c-0.21,4.55,1.8,8.39,3.74,12.1l55.26,105.74c2.39-8.16,7-20.42,14.24-38.81
			c4.09-10.38,7.95-20.19,9.02-24.28c5.53-21.05,15.12-42.64,24.39-63.52c3.23-7.26,6.56-14.78,9.62-22.05
			c0.65-1.55,1.55-3.68,1.45-4.91c-0.06-0.69-0.52-1.37-1.27-2.42c-16.65-23.12-30.99-46.54-43.85-71.57
			c-0.81-1.58-3.27-4.77-5.88-8.13c-4.95-6.4-9.27-12.2-12-17.3c-10.65,24.8-21.44,49.69-32.14,74.12
			c-1.52,3.47-3.3,7.31-5.18,11.38C962.78,1395.99,957.06,1408.33,953.56,1419.44L953.56,1419.44z"/>
	</g>
	<g>
		<path fill="#140700" d="M817.54,1418.32c1.57,5.89,2.63,11.45,2.82,16.26c0.21,5.44-1.68,9.83-3.53,14
			c-17.08,38.59-34.17,77.19-51.25,115.78c2.47-6.68-18.38-61.62-21.11-73.91c-6.26-28.12-18.72-57.17-28.67-85.07
			c-0.79-2.23-1.61-4.58-1.47-6.65c0.12-1.74,0.9-3.05,1.66-4.3c13.71-22.49,25.85-45.71,36.89-71.1
			c2.82-6.47,20.02-27.47,17.04-35.69c10.23,28.21,20.57,56.41,31.02,84.58C805.63,1384.84,813.38,1402.75,817.54,1418.32z"/>
	</g>
	<g>
		<path fill="#140700" d="M846.31,1565.87l-6.91-2.8c-0.02,0.05-0.04,0.11-0.05,0.17c0.81-4.45-8.05-31.04-13.35-46.92
			c-3.68-11.04-6.86-20.57-7.86-25.06c-4.56-20.5-12.59-41.83-20.35-62.47c-2.74-7.29-5.58-14.83-8.19-22.16
			c-0.84-2.34-1.88-5.26-1.68-8.16c0.18-2.68,1.35-4.59,2.2-5.99c13.92-22.83,25.91-45.94,36.66-70.65c0.95-2.18,3-5.31,5.59-9.26
			c4.17-6.36,12.84-19.6,11.37-23.66l7.02-2.54c10.22,28.19,20.66,56.64,31.01,84.56c1.26,3.4,2.76,7.21,4.34,11.25
			c4.35,11.08,9.28,23.64,12.36,35.18v0c1.8,6.73,2.76,12.31,2.94,17.08c0.24,6.42-2.02,11.54-3.84,15.65L846.31,1565.87z
			 M848.08,1300.85c-2.31,4.71-5.66,10.01-9.46,15.81c-2.21,3.37-4.29,6.55-4.99,8.15c-10.89,25.03-23.03,48.43-37.13,71.55
			c-0.66,1.09-1.07,1.81-1.12,2.61c-0.09,1.35,0.66,3.46,1.26,5.15c2.59,7.27,5.42,14.78,8.15,22.04
			c7.85,20.87,15.97,42.46,20.64,63.47c0.92,4.12,4.19,13.93,7.65,24.32c5.73,17.19,9.52,29,11.63,37.08l46.02-103.97
			c1.67-3.76,3.39-7.66,3.21-12.35c-0.16-4.15-1.06-9.34-2.69-15.44l0,0c-2.97-11.13-7.82-23.49-12.1-34.38
			c-1.6-4.07-3.11-7.92-4.39-11.38C865.87,1349.52,856.91,1325.14,848.08,1300.85z"/>
	</g>
	<g>
		<path fill="#140700" d="M1197.14,1738.46c-8.07,14.88-14.34,30.97-18.51,47.48c0.75-8.57,2.15-17.12,4.01-25.6
			c1.88-8.47,4.21-16.88,7.21-25.18L1197.14,1738.46L1197.14,1738.46z"/>
	</g>
	<g>
		<path fill="#140700" d="M1224.97,1736.92c-8.07,14.88-14.34,30.97-18.51,47.48c0.75-8.57,2.15-17.12,4.01-25.6
			c1.88-8.47,4.21-16.88,7.21-25.18L1224.97,1736.92L1224.97,1736.92z"/>
	</g>
	<g>
		<path fill="#140700" d="M1242.51,1757.08c-1.08,6.71-3.1,13.04-5.27,19.41c-2.26,6.34-4.63,12.54-7.98,18.46
			c0.31-6.82,2.01-13.38,4.2-19.78C1235.75,1768.79,1238.51,1762.61,1242.51,1757.08L1242.51,1757.08z"/>
	</g>
</g>
</svg>
