<?xml version="1.0" encoding="utf-8"?>
<!-- Generator: Adobe Illustrator 24.0.1, SVG Export Plug-In . SVG Version: 6.00 Build 0)  -->
<svg version="1.1" id="Layer_1" xmlns="http://www.w3.org/2000/svg" xmlns:xlink="http://www.w3.org/1999/xlink" x="0px" y="0px"
	 viewBox="0 0 463 422" style="enable-background:new 0 0 463 422;" xml:space="preserve">
<style type="text/css">
	.st0{fill-rule:evenodd;clip-rule:evenodd;fill:#009CD9;}
	.st1{fill:none;stroke:#1B2129;}
</style>
<title>Group 3</title>
<g id="Page-1">
	<g id="_x30_4.Services" transform="translate(-1476.000000, -101.000000)">
		<g id="page-header" transform="translate(174.154417, 101.643182)">
			<g id="Group-3" transform="translate(1302.714090, -0.000000)">
				<path id="bg-shape-blue" class="st0" d="M59,74.7c-11,44.1,99.2,101.1,162.5,141.7c60.9,39,12.9,153.5,55.2,164.1
					C363.2,402,489.1,198.6,384.6,212C280.1,225.3,346.2,67,259.8,45.4S70,30.6,59,74.7z"/>
				<path id="bg-shape" class="st1" d="M350.1,220.5c-0.1,18.9-9.2,48.8-22.8,79c-13.3,29.7-30.9,59.7-48.4,79.9
					c-7.7,8.9-15.3,16-22.6,20.2c-6.6,3.9-12.8,5.5-18.5,4.1c-2.3-0.6-4-2.2-5.2-4.7c-1.4-2.8-2.2-6.8-2.6-11.6
					c-1-12.4,0.8-30.3,2.8-50c4.2-41.4,9-90-9.7-109.6c-5.9-6.2-12.5-12.7-19.5-19.5c-34.9-34.2-77.5-75.6-67-117.7
					c5.9-23.8,24-40.8,47-50.8c25.6-11.2,57.4-13.6,85.1-6.7c4.8,1.2,8.7,3.9,11.8,7.8c3.4,4.3,5.8,10,7.5,16.7
					c3.9,15.1,4.3,35.2,4.1,55.7l0,2.2c0,1.1,0,2.2,0,3.4l0,2.2c0,1.1,0,2.2,0,3.4c0,2.6-0.1,5.2-0.1,7.7l0,1.7
					c-0.2,24.1,0.3,46.6,6.3,59.8c2.7,5.9,6.4,9.9,11.7,11.6c4.8,1.5,10.8,1,18.4-2.1c3.7-1.5,6.9-2.2,9.5-2.2c2.7,0,5,0.7,6.7,2.1
					C348.5,206.2,350.1,212.3,350.1,220.5z"/>
			</g>
		</g>
	</g>
</g>
</svg>
