<?xml version="1.0" encoding="utf-8"?>
<!-- Generator: Adobe Illustrator 24.0.1, SVG Export Plug-In . SVG Version: 6.00 Build 0)  -->
<svg version="1.1" id="Layer_1" xmlns="http://www.w3.org/2000/svg" xmlns:xlink="http://www.w3.org/1999/xlink" x="0px" y="0px"
	 viewBox="0 0 102.7 27.8" style="enable-background:new 0 0 102.7 27.8;" xml:space="preserve">
<style type="text/css">
	.st0{font-family:'Mulish-SemiBold';}
	.st1{font-size:23.73px;}
	.st2{letter-spacing:-1;}
</style>
<text transform="matrix(1 0 0 1 26.6409 21.8693)" class="st0 st1 st2">di</text>
<text transform="matrix(1 0 0 1 44.0009 21.8693)" class="st0 st1 st2">k</text>
<text transform="matrix(1 0 0 1 56.4109 21.8693)" class="st0 st1 st2">sian</text>
<g>
	<path d="M19.1,18.2L19,18.3c-0.2,0.3-0.4,0.7-0.6,1c-1,1.3-2.3,2.1-3.9,2.4c-0.6,0.1-1.2,0.2-1.9,0.1c-1.3-0.1-2.5-0.6-3.6-1.4
		c-1.1-0.9-1.9-2.1-2.3-3.5c-0.1-0.4-0.2-0.8-0.2-1.2C6.3,12.6,8.2,9.9,11,8.9c0.5-0.2,1.1-0.3,1.6-0.3s0.9,0,1.4,0
		c0.8,0.1,1.5,0.4,2.2,0.7c0,0,0.1,0,0.1,0.1c0-0.1,0-0.1,0-0.2c0-0.6,0-1.1,0-1.7c0-0.2,0-0.3,0-0.5c0-0.4,0.1-0.9,0.3-1.3
		c0.5-1,1.2-1.5,2.2-1.7c0.2,0,0.3,0,0.5-0.1h0.1c0.1,0,0.1,0.1,0.1,0.2s0,0.1,0,0.2c0,3.3,0,6.6,0,9.9c0,0.3,0,0.7,0.1,1
		s0.1,0.6,0.2,0.9c0.3,0.7,0.9,1.2,1.6,1.5c0.3,0.1,0.7,0.2,1.1,0.3c0.3,0,0.7,0.1,1,0.1c0.1,0,0.1,0,0.2,0c0.2,0,0.3,0.2,0.3,0.4
		v0.1c0,0.9,0,1.8,0,2.7c0,0.1,0,0.1,0,0.2c0,0.2-0.2,0.3-0.4,0.3c-0.1,0-0.2,0-0.3,0c-0.8-0.1-1.6-0.4-2.3-0.8
		c-0.6-0.4-1.2-0.8-1.6-1.5c-0.2-0.4-0.4-0.7-0.5-1.2C19.2,18.3,19.2,18.3,19.1,18.2C19.1,18.3,19.1,18.2,19.1,18.2z M13.2,11.9
		c-1.8,0-3.3,1.5-3.3,3.3s1.5,3.3,3.3,3.3s3.3-1.5,3.3-3.3S15,11.9,13.2,11.9z"/>
	<path d="M23.6,11.8c0.1,0,0.1,0,0.2,0c0.3,0,0.5,0.3,0.5,0.6s0,0.6-0.1,0.8c-0.3,1.1-1.2,2-2.4,2.3c-0.2,0-0.4,0.1-0.6,0.1
		c-0.1,0-0.3,0-0.4-0.1s-0.2-0.3-0.2-0.5c0-0.5,0.1-0.9,0.3-1.3c0.5-1,1.2-1.6,2.3-1.8C23.3,11.8,23.5,11.8,23.6,11.8L23.6,11.8z"/>
</g>
</svg>
