<?xml version="1.0" encoding="UTF-8"?>
<svg id="Layer_1" data-name="Layer 1" xmlns="http://www.w3.org/2000/svg" viewBox="0 0 102.68 27.82">
  <defs>
    <style>
      .cls-1 {
        letter-spacing: 0em;
      }

      .cls-2 {
        stroke-width: 0px;
      }

      .cls-3 {
        letter-spacing: 0em;
      }

      .cls-4 {
        font-family: Mulish-SemiBold, Mulish;
        font-size: 23.73px;
        font-weight: 600;
      }
    </style>
  </defs>
  <g>
    <circle class="cls-2" cx="11.63" cy="1.71" r="1.71"/>
    <path class="cls-2" d="m18.15,13.66h0c0,1.9-1.55,3.45-3.45,3.45h0c-.35,0-.64-.29-.64-.64h0c0-1.9,1.54-3.45,3.45-3.45h0c.35,0,.64.29.64.64Z"/>
    <path class="cls-2" d="m17.67,19.86c0-.23-.19-.41-.41-.41-.95,0-3.03-.04-3.8-1.95-.18-.45-.29-1.02-.29-1.71V5.07c0-.14-.12-.26-.26-.26h0c-1.68,0-3.03,1.36-3.03,3.03v2.99s0,0,0,0h0c-.3-.17-.62-.33-.95-.45-.05-.02-.09-.03-.14-.05s-.09-.03-.14-.05c-.05-.02-.09-.03-.14-.04-.04-.01-.08-.02-.12-.03-.03-.01-.07-.02-.1-.03-.16-.04-.33-.08-.5-.11-.04,0-.09-.02-.13-.02,0,0,0,0-.01,0-.03,0-.06-.01-.09-.01-.03,0-.06,0-.09-.01-.04,0-.07,0-.11-.01-.05,0-.1-.01-.14-.01-.04,0-.08,0-.12-.01-.03,0-.06,0-.09,0-.03,0-.06,0-.09,0-.05,0-.1,0-.15,0-.05,0-.1,0-.16,0-.03,0-.06,0-.08,0-.11,0-.22,0-.33.01-.05,0-.11,0-.16.01,0,0,0,0-.01,0-.05,0-.11.01-.16.02-.05,0-.09.01-.13.02-2.67.36-4.86,2.35-5.51,4.93-.01.04-.02.09-.03.13-.02.09-.04.17-.05.26-.01.05-.02.11-.03.16,0,.05-.02.11-.02.16,0,.04-.01.09-.02.14,0,.01,0,.02,0,.04,0,.05-.01.1-.01.14,0,0,0,0,0,.01,0,.05,0,.11-.01.16,0,.04,0,.09,0,.13,0,.02,0,.04,0,.06,0,.03,0,.05,0,.08,0,.04,0,.08,0,.12h0c0,.06,0,.11,0,.17,0,.1,0,.19.01.29,0,.06,0,.12.02.18,0,.05.01.1.02.15,0,0,0,0,0,0,0,.05.01.1.02.15,0,.05.01.1.02.14,0,0,0,.01,0,.02,0,.04.02.08.02.13,0,.01,0,.02,0,.03.01.05.02.1.03.14.01.05.02.1.04.15,0,.04.02.07.03.11,0,.03.02.06.02.09,0,.03.02.07.03.1.01.05.03.1.04.14.02.05.03.1.05.15.02.05.03.1.05.14.02.05.04.1.06.14.02.05.04.09.06.14.06.13.12.26.18.38.03.06.08.15.11.21.07.13.14.24.21.35.03.04.05.08.08.13.12.19.26.36.4.53.03.03.06.07.08.1.03.03.05.06.08.09.03.03.06.07.09.1.1.11.21.22.32.32.03.03.07.06.1.1,0,0,0,0,0,0,.03.03.07.06.1.09.15.13.31.26.48.37.12.09.25.17.38.25.13.08.26.15.4.22.05.02.09.05.14.07.05.02.09.04.14.07.05.02.09.04.14.06.05.02.09.04.14.06.05.02.09.04.14.06,0,0,0,0,0,0,.05.02.09.03.14.05.05.02.1.03.15.05h0s.1.03.15.05c.06.02.12.04.19.05.03.01.07.02.1.03,0,0,.02,0,.03,0,.05.01.09.02.14.03.05.01.1.02.15.03.05.01.1.02.15.03,0,0,.01,0,.02,0,.15.03.3.05.46.06.05,0,.11.01.16.01.04,0,.08,0,.12,0,.03,0,.07,0,.1,0,.09,0,.18,0,.27,0,.05,0,.1,0,.14,0,.03,0,.06,0,.09,0,.02,0,.05,0,.07,0,.02,0,.04,0,.06,0,.21-.01.42-.03.63-.07.05,0,.11-.02.16-.03.05-.01.11-.02.16-.03.05-.01.09-.02.14-.03.07-.02.13-.03.2-.05.1-.03.19-.05.29-.08.02,0,.04-.01.06-.02.02,0,.04-.01.06-.02.01,0,.02,0,.03,0,.05-.02.1-.04.15-.05.04-.02.09-.03.13-.05.06-.02.11-.04.17-.07,0,0,.02,0,.02-.01.02,0,.03-.01.05-.02.02-.01.05-.02.07-.03,0,0,0,0,.01,0,.05-.02.09-.04.14-.07.05-.02.1-.05.14-.07.09-.05.19-.1.28-.15,0,0,0,0,0,0,.05-.03.09-.05.13-.08.04-.02.08-.05.12-.07.15-.09.29-.19.43-.3.03-.02.06-.04.09-.07.02-.01.03-.02.05-.04.03-.03.07-.05.1-.08.2-.17.4-.35.58-.54.05-.05.09-.1.14-.15.03-.04.07-.07.1-.11.01-.01.03-.03.04-.04.06-.07.12-.14.17-.21.03-.04.05-.07.08-.11.01-.01.02-.03.03-.04.02-.03.05-.06.07-.1.05-.07.09-.13.14-.2.02-.03.04-.06.05-.08,0-.01.02-.03.02-.04.02-.03.03-.05.05-.08.08-.14.23-.41.23-.41.66,2.49,2.96,3.37,4.73,3.58.25.03.46-.16.46-.41,0-.72.02-2.12,0-2.81Zm-7.81-3.32s0,.08,0,.13c0,0,0,.02,0,.03h0s0,.03,0,.04c0,.04,0,.08,0,.11,0,.02,0,.05,0,.07,0,.04-.01.08-.02.12,0,0,0,.01,0,.02,0,.03,0,.05-.01.08h0c-.01.08-.03.15-.05.22,0,.01,0,.02,0,.03,0,.03-.02.06-.03.09-.01.03-.02.07-.03.1-.01.03-.02.07-.04.1-.01.03-.02.07-.04.1-.01.03-.03.07-.04.1-.01.03-.03.06-.04.1-.03.06-.06.13-.1.19-.03.05-.06.1-.09.15,0,.01-.01.02-.02.03-.02.03-.04.06-.06.08,0,0,0,.01-.01.02-.02.02-.03.05-.05.07-.02.03-.04.06-.06.08s-.04.05-.07.08c-.02.03-.04.05-.06.07h0s-.05.06-.07.08c-.02.02-.05.05-.07.07-.03.02-.05.05-.08.07-.02.02-.04.04-.06.06-.01.02-.03.03-.05.04-.17.13-.37.27-.58.37-.06.03-.13.06-.19.09-.04.02-.09.04-.13.06-.02,0-.04.02-.07.03,0,0-.01,0-.02,0-.34.13-.7.2-1.07.2-.92,0-1.75-.36-2.35-.97-.04-.04-.07-.08-.11-.11-.01-.01-.02-.02-.03-.03-.02-.02-.04-.04-.06-.07-.02-.02-.04-.05-.06-.07-.04-.05-.07-.09-.11-.14-.01-.02-.03-.04-.04-.06,0-.01-.02-.02-.02-.03,0,0,0,0,0,0,0-.01-.01-.02-.02-.03h0c-.04-.06-.07-.12-.1-.18-.01-.02-.03-.05-.04-.07,0-.01-.01-.03-.02-.04-.02-.04-.04-.08-.06-.11-.01-.03-.02-.05-.03-.08,0,0,0,0,0,0,0-.02-.02-.04-.03-.07,0-.01,0-.02-.01-.04-.02-.04-.03-.09-.05-.13-.02-.07-.04-.13-.06-.2,0-.03-.02-.06-.02-.09-.02-.09-.04-.19-.05-.28,0-.04-.01-.09-.02-.14,0-.03,0-.07,0-.1,0-.03,0-.05,0-.08,0-.05,0-.11,0-.16,0-.13,0-.26.02-.38,0,0,0,0,0,0h0s0-.05.01-.08c0-.05.02-.1.03-.15.03-.15.07-.3.12-.44.02-.05.03-.09.05-.14,0,0,0,0,0,0,.01-.03.03-.06.04-.09h0c.04-.09.08-.18.13-.27.04-.07.08-.14.12-.2.03-.04.06-.09.09-.13.59-.84,1.57-1.38,2.67-1.38.02,0,.03,0,.05,0,.02,0,.03,0,.05,0h.02s.04,0,.06,0c0,0,.01,0,.02,0,.03,0,.07,0,.1,0,.02,0,.03,0,.05,0s.04,0,.05,0c.02,0,.05,0,.07.01.03,0,.06,0,.09.01.03,0,.07.01.1.02.02,0,.03,0,.04,0,.04,0,.08.02.12.03.02,0,.03,0,.05.01.03,0,.06.02.09.03.03.01.07.02.1.03t0,0s.07.02.1.04c.03.01.06.02.1.04,0,0,.02,0,.03.01.05.02.09.04.14.06.04.02.08.04.12.06.02.01.04.02.07.03.02.01.04.02.06.03,0,0,.01,0,.02.01.02.01.03.02.05.03.01,0,.02.01.03.02.02.01.04.03.07.04.04.03.09.06.13.09.04.03.08.06.12.1,0,0,0,0,0,0,.01.01.02.02.03.03.03.02.05.05.08.07.02.02.04.03.06.05.02.02.04.04.06.05.14.14.27.3.39.46h0c.36.53.57,1.17.57,1.85h0Z"/>
  </g>
  <text class="cls-4" transform="translate(23.67 21.34)"><tspan x="0" y="0">di</tspan><tspan class="cls-1" x="20.36" y="0">k</tspan><tspan class="cls-3" x="32.77" y="0">sian</tspan></text>
</svg>